<svg id="Looks_in_White_BG_copy" data-name="Looks in White BG copy" xmlns="http://www.w3.org/2000/svg" viewBox="0 0 500 500"><defs><style>.cls-1{fill:#0af;}.cls-2{fill:#ef4582;}.cls-3{fill:#586b93;}.cls-4{fill:#444;}</style></defs><title>Light Theme BG</title><g id="LOGO"><g id="Syntax"><path class="cls-1" d="M315.66,203.47V175.66L419.59,225l-28.23,13.38-.84.42L341.59,215.6Zm0,43.08,35.13-16.73,1-.42,29.27,13.8-5.44,2.72-60,28.44Z"/><path class="cls-1" d="M158.41,215.6l-48.93,23.21-.84-.42L80.41,225l103.93-49.35v27.81Zm25.93,58.76-60-28.44-5.44-2.72,29.27-13.8,1.05.42,35.13,16.73Z"/></g><g id="Blood"><path class="cls-2" d="M251.51,207.76A1.86,1.86,0,0,0,250,207a1.9,1.9,0,0,0-1.52.77c-3.74,5.23-13.12,19-13.12,25.44a14.64,14.64,0,0,0,29.28,0C264.64,226.73,255.26,213,251.51,207.76Zm-6.65,33.73a2.05,2.05,0,0,1-1.56.72,2,2,0,0,1-1.3-.48c-5.77-4.86-3.78-12-3.69-12.34a2,2,0,0,1,3.9,1.12c-.06.23-1.31,5,2.41,8.11A2.05,2.05,0,0,1,244.86,241.49Zm4,4a2.17,2.17,0,1,1,2.15-2.16A2.16,2.16,0,0,1,248.86,245.53Z"/></g><path class="cls-3" d="M258.49,173.92a12.7,12.7,0,0,1,2.83,1.39,4.92,4.92,0,0,1,1.3,2.14c2.26,7.13,8.3,10.44,14.31,13.25,2.81,1.31,6.61.79,9.93.59,2.86-.18,4.35.91,5.62,3.32,2.42,4.57,5.27,8.91,7.63,13.51.61,1.2.14,3,0,4.51a3,3,0,0,1-.88,1.55c-5.09,5.45-4.15,12.35-3.91,18.78.1,2.8,2.44,5.68,4.2,8.21s1.63,4.61,0,7.16c-2.74,4.25-5,8.79-7.73,13-.68,1.06-2.29,1.6-3.57,2.17a3.7,3.7,0,0,1-2.14,0c-7.28-1.69-12.79,2.59-18.19,6.05-2.55,1.63-3.86,5.4-5.37,8.38-1.15,2.27-2.62,3-5.1,2.91-5.29-.18-10.61.09-15.89-.16-1.34-.07-2.64-1.41-3.91-2.22a1.72,1.72,0,0,1-.55-.92c-2.29-7.27-8.56-10.49-14.63-13.39-2.77-1.32-6.59-.67-9.92-.56-2.45.08-3.94-.62-5.12-2.86-2.47-4.68-5.37-9.14-7.79-13.84-.61-1.2-.15-3,0-4.52a3,3,0,0,1,.91-1.54c5-5.48,3.91-12.33,4-18.81,0-1.71-1.28-3.67-2.47-5.1-3.69-4.41-3.73-8.47-.15-13.08,2.41-3.11,3.88-6.93,6.11-10.2.77-1.13,2.5-1.7,3.9-2.27a4.33,4.33,0,0,1,2.5,0c7.06,1.66,12.34-2.6,17.46-6,2.72-1.81,3.86-5.94,5.85-8.93a15.15,15.15,0,0,1,2.64-2.46l.9.65c0,7.93.09,15.86-.13,23.79,0,.9-1.69,2.06-2.83,2.58-17.93,8.17-23,30.8-10.2,45.46a28.93,28.93,0,0,0,50.69-17.07,28.37,28.37,0,0,0-16.4-27.79c-3.31-1.49-4-3.23-3.92-6.47C258.65,188.33,258.49,181.48,258.49,173.92Z"/><path class="cls-4" d="M119.49,324.19h6.3l-.14.59a12.35,12.35,0,0,1-6.41,8.26,9.1,9.1,0,0,1-.84.39,12.59,12.59,0,0,1-4.83.94A12.43,12.43,0,0,1,101.18,322a12.93,12.93,0,0,1,.7-4.13l.25-.73,5.18,5.18v.17a6.14,6.14,0,0,0,1.78,3.92,6.21,6.21,0,0,0,3.92,1.79,8.63,8.63,0,0,0,.88,0,6.48,6.48,0,0,0,1.85-.38,2.21,2.21,0,0,0,.56-.25,6.6,6.6,0,0,0,1.65-1.19,6,6,0,0,0,1.36-2Zm-11.83-4.41-4.52-4.52.25-.31a12.41,12.41,0,0,1,18-2.56,12.25,12.25,0,0,1,4.27,6.9l.14.59h-6.3l-.14-.28a6,6,0,0,0-1.37-2,6.27,6.27,0,0,0-8.89,0,6.86,6.86,0,0,0-1.19,1.65Z"/><path class="cls-4" d="M144.76,327.23l4.23,4.24-.42.35a12.05,12.05,0,0,1-16.9-16.91l.35-.42,4.23,4.24L136,319a6.12,6.12,0,0,0-.91,3.22,6.11,6.11,0,0,0,6.06,6.06,6.12,6.12,0,0,0,3.22-.91Zm4.93-13.44a12,12,0,0,1,1,15.89l-.35.42-4.24-4.23.21-.32a6.07,6.07,0,0,0-8.36-8.36l-.32.21-4.23-4.24.42-.35a12,12,0,0,1,15.89,1Z"/><path class="cls-4" d="M178.64,315.61a12,12,0,0,1,0,13.55l-.1.1a12,12,0,0,1-9.84,5.15h-12V319.88l6,6v2.55h6.41a5.9,5.9,0,0,0,4.51-2.55v0a6.19,6.19,0,0,0,1-3.43,6,6,0,0,0-6-6h-6v6.79l-6-6v-6.83h12a12,12,0,0,1,9.84,5.15Z"/><path class="cls-4" d="M191.38,325.41l-7.28-7.28v-7.77h20.09v5.95H190.71l3.12,3.12h10.36v5.95Zm12.81,3v6H184.13V320.79l6,5.95v1.68Z"/><path class="cls-4" d="M245.1,317.29a7.11,7.11,0,0,1-2,5,7.12,7.12,0,0,1,2,5,7.23,7.23,0,0,1-.21,1.75,7,7,0,0,1-6.3,5.32H224.31V322.93l5.95,5.95v.24h6.48a1.82,1.82,0,0,0,0-3.64h-6.48v.7l-5.95-5.95v-9.94h13.76a7.11,7.11,0,0,1,6.89,5.36,7.23,7.23,0,0,1,.21,1.75Zm-14.84.39,1.58,1.57h4.86a1.82,1.82,0,1,0,0-3.64h-6.47Z"/><path class="cls-4" d="M255.67,328.56l5.81,5.81H248.67v-24h6v18.09h.91Zm9.73-.14v5.95h-1.19l-5.95-5.95Z"/><path class="cls-4" d="M284.48,327.23l4.23,4.24-.42.35a12.06,12.06,0,0,1-16.91-16.91l.36-.42,4.23,4.24-.21.31a6.12,6.12,0,0,0-.91,3.22,6.11,6.11,0,0,0,6.06,6.06,6.12,6.12,0,0,0,3.22-.91Zm4.93-13.44a12,12,0,0,1,1,15.89l-.35.42-4.24-4.23.21-.32a6.07,6.07,0,0,0-8.36-8.36l-.32.21-4.24-4.24.42-.35a12.07,12.07,0,0,1,7.39-2.52,11.94,11.94,0,0,1,8.51,3.54Z"/><path class="cls-4" d="M312,327.23l4.24,4.24-.42.35a12.05,12.05,0,0,1-7.39,2.52,12.09,12.09,0,0,1-12-12,12.05,12.05,0,0,1,2.52-7.39l.35-.42,4.24,4.24-.21.31a6.08,6.08,0,0,0,8.36,8.37ZM317,313.79a12,12,0,0,1,1,15.89l-.35.42-4.23-4.23.21-.32a6.06,6.06,0,0,0,.91-3.22,6.08,6.08,0,0,0-9.28-5.14l-.31.21-4.24-4.24.42-.35a12.05,12.05,0,0,1,7.39-2.52,11.9,11.9,0,0,1,8.5,3.54Z"/><path class="cls-4" d="M345.9,315.61a12,12,0,0,1,0,13.55l-.1.1a12,12,0,0,1-9.84,5.15H324V319.88l6,6v2.55h6.41a5.92,5.92,0,0,0,4.52-2.55v0a6.26,6.26,0,0,0,1-3.43,6,6,0,0,0-6-6h-6v6.79l-6-6v-6.83h12a12,12,0,0,1,9.84,5.15Z"/><path class="cls-4" d="M358.64,325.41l-7.28-7.28v-7.77h20.09v5.95H358l3.12,3.12h10.36v5.95Zm12.81,3v6H351.39V320.79l6,5.95v1.68Z"/><path class="cls-4" d="M396.9,315.61a12,12,0,0,1,0,13.55l-.11.1a12,12,0,0,1-9.83,5.15H375V319.88l6,6v2.55h6.41a5.9,5.9,0,0,0,4.51-2.55v0a6.19,6.19,0,0,0,1-3.43,6,6,0,0,0-6-6h-6v6.79l-6-6v-6.83h12a12,12,0,0,1,9.83,5.15Z"/></g></svg>